<svg xmlns="http://www.w3.org/2000/svg" fill="none" viewBox="0 0 72 87"><path fill="#363636" d="m53 1-1-1H9L8 1v4h45V1ZM54 82h-9V71h-7v3H19l-3-2H4c-2 0-4 1-4 3v3c0 2 2 4 4 4h12l3-3h19v3H28l-1 1v3l1 1h26l1-1v-3l-1-1ZM61 12c-1-3-4-5-7-5H7c-4 0-7 3-7 7v47c0 4 3 7 7 7h47c4 0 7-3 7-7V51a23 23 0 0 0 0-39ZM12 62a6 6 0 1 1 0-12 6 6 0 0 1 0 12Zm6-32-1 1H8l-2-1V15l2-1h9l1 1v15Zm30 22a20 20 0 1 1 0-40 20 20 0 0 1 0 40Z"/><path fill="#363636" d="M48 44a12 12 0 1 0 0-24 12 12 0 0 0 0 24ZM32 33a1 1 0 1 0 0-3 1 1 0 0 0 0 3ZM64 33a1 1 0 1 0 0-3 1 1 0 0 0 0 3ZM39 19a1 1 0 1 0 0-2 1 1 0 0 0 0 2ZM56 47a1 1 0 1 0 0-3 1 1 0 0 0 0 3ZM56 19a1 1 0 1 0 0-3 1 1 0 0 0 0 3ZM40 47a1 1 0 1 0 0-3 1 1 0 0 0 0 3Z"/></svg>